<?xml version="1.0" encoding="utf-8"?><svg xmlns="http://www.w3.org/2000/svg" xmlns:xlink="http://www.w3.org/1999/xlink"><symbol viewBox="0 0 106.901 106.901" id="500px" xmlns="http://www.w3.org/2000/svg"><path d="M58.767 94.652c19.545 0 35.446-15.901 35.446-35.446S78.312 23.76 58.767 23.76a35.433 35.433 0 00-25.492 10.811V6h48.757a3 3 0 100-6H30.275a3 3 0 00-3 3v39.867l-.035.731a3.002 3.002 0 002.189 3.031 2.998 2.998 0 003.443-1.457 29.453 29.453 0 0125.895-15.413c16.236 0 29.446 13.209 29.446 29.446s-13.21 29.446-29.446 29.446c-5.459 0-10.643-1.536-15.109-4.213V59.206c0-8.332 6.778-15.11 15.109-15.11s15.109 6.778 15.109 15.11-6.778 15.11-15.109 15.11c-2.017 0-3.974-.39-5.817-1.16a3 3 0 00-2.311 5.537 20.98 20.98 0 008.128 1.623c11.64 0 21.109-9.47 21.109-21.11s-9.47-21.11-21.109-21.11-21.109 9.47-21.109 21.11v20.502a29.26 29.26 0 01-7.281-12.658 3 3 0 00-5.785 1.594c4.221 15.314 18.273 26.008 34.175 26.008z"/><path d="M40.739 15.157a3 3 0 102.436 5.483c9.402-4.175 27.877-8.537 45.937 9.173a2.99 2.99 0 002.101.858 3 3 0 002.101-5.142C71.953 4.583 49.43 11.297 40.739 15.157zm53.64 71.142a3 3 0 00-4.232.296 41.571 41.571 0 01-31.38 14.307c-21.147 0-38.9-15.819-41.295-36.797a3 3 0 00-5.961.681c2.74 24.01 23.056 42.117 47.256 42.117a47.568 47.568 0 0035.907-16.37 3.002 3.002 0 00-.295-4.234zm-43.246-19.82a2.992 2.992 0 002.136.894 2.99 2.99 0 002.106-.864l3.081-3.038 3.038 3.08a2.992 2.992 0 002.136.894 3 3 0 002.135-5.107l-3.037-3.08 2.969-2.927a3 3 0 00-4.213-4.273l-2.969 2.928-2.928-2.969a3 3 0 10-4.271 4.213l2.927 2.968-3.08 3.038a3 3 0 00-.03 4.243z"/></symbol><symbol viewBox="0 0 512 512" id="behance" xmlns="http://www.w3.org/2000/svg"><path d="M74.721 234.779h63.717c27.246 0 45.551-16.84 45.552-41.904 0-24.673-18.732-41.904-45.551-41.904H74.721c-5.522 0-10 4.477-10 10v63.808c0 5.523 4.478 10 10 10zm10-63.808h53.718c15.761 0 25.551 8.393 25.551 21.904 0 19.77-17.868 21.904-25.551 21.904H84.721v-43.808zm56.452 100.78H74.721c-5.522 0-10 4.477-10 10v69.278c0 5.523 4.478 10 10 10h66.452c14.377 0 26.504-4.025 35.072-11.641 8.941-7.949 13.668-19.359 13.668-32.998 0-26.283-20.043-44.639-48.74-44.639zm0 69.278H84.721v-49.278h56.452c17.727 0 28.74 9.441 28.74 24.639 0 20.364-15.629 24.639-28.74 24.639z"/><path d="M214.918 250.549a74.82 74.82 0 0017.545-16.013c11.522-14.489 17.613-32.835 17.613-53.055 0-23.621-8.901-45.322-25.062-61.106C207.347 103.12 182.296 94 152.567 94H10c-5.522 0-10 4.477-10 10v304c0 5.523 4.478 10 10 10h147.58c30.32 0 55.623-9.311 73.172-26.927C247.27 374.492 256 351.819 256 325.506c0-31.961-16.504-60.486-41.082-74.957zM157.58 398H20V114h132.568c53.542 0 77.509 33.892 77.509 67.481 0 35.071-22.318 55.375-44.436 59.939a10 10 0 00.509 19.679c28.419 4.342 49.85 32.03 49.85 64.406C236 370.222 205.951 398 157.58 398zm296.274-296h-122c-5.522 0-10 4.477-10 10v32c0 5.523 4.478 10 10 10h122c5.522 0 10-4.477 10-10v-32c0-5.523-4.478-10-10-10zm-10 32h-102v-12h102v12zM293.707 293.469v-.17c0-5.523-4.478-10-10-10s-10 4.477-10 10v.17c0 5.523 4.478 10 10 10s10-4.477 10-10z"/><path d="M480.491 201.294c-21.975-23.923-52.135-36.053-89.644-36.053-33.609 0-61.859 11.572-83.963 34.393-14.039 14.498-23.741 32.681-28.837 54.045-1.282 5.372 2.034 10.765 7.406 12.047 5.376 1.281 10.767-2.034 12.048-7.407 4.252-17.825 12.243-32.889 23.749-44.772 18.45-19.047 41.214-28.306 69.597-28.306 32.125 0 56.63 9.676 74.914 29.581 16.764 18.256 25.562 46.413 26.202 83.783H347.067a10 10 0 00-9.997 10.252c.503 20.01 6.499 36.005 17.818 47.537 11.436 11.659 25.829 17.571 42.778 17.571 11.875 0 22.131-3.229 30.484-9.597 3.45-2.631 6.558-5.902 9.284-9.762h44.375c-6.675 11.646-15.481 21.121-26.175 28.163-15.345 10.107-35.071 15.232-58.629 15.232-37.699 0-64.613-11.141-82.236-34.004-7.464-9.824-13.009-21.229-16.48-33.896-1.46-5.327-6.964-8.461-12.287-7.002-5.327 1.459-8.462 6.961-7.002 12.287 4.151 15.144 10.826 28.841 19.887 40.765C320.292 403.92 353.304 418 397.006 418c27.536 0 50.963-6.234 69.63-18.531 13.37-8.805 24.336-20.592 32.591-35.034 2.89-5.054 5.448-10.553 7.603-16.343a9.999 9.999 0 00-9.372-13.488h-65.551a10 10 0 00-8.757 5.171c-2.054 3.725-4.452 6.648-7.127 8.688-4.854 3.702-10.859 5.501-18.356 5.501-11.537 0-20.86-3.786-28.503-11.578-5.878-5.989-9.576-13.824-11.188-23.781h143.97a10 10 0 009.998-9.805c.929-47.598-9.653-83.768-31.453-107.506z"/><path d="M348.166 282.539h92.399a10 10 0 009.998-10.258c-.507-19.602-6.144-34.971-16.755-45.68-10.707-10.799-23.903-16.275-39.222-16.275-16.299 0-30.001 5.787-40.728 17.202v.001c-10.584 11.266-15.863 26.44-15.692 45.102.051 5.487 4.513 9.908 10 9.908zm20.267-41.316c6.89-7.333 15.445-10.897 26.152-10.897 9.926 0 18.111 3.388 25.017 10.354 5.148 5.195 8.51 12.524 10.04 21.859h-70.861c1.261-8.753 4.452-15.779 9.652-21.316zM42 239c-5.522 0-10 4.477-10 10v81.5c0 5.523 4.478 10 10 10s10-4.477 10-10V249c0-5.523-4.478-10-10-10zm0-45.5c-5.522 0-10 4.477-10 10v.118c0 5.523 4.478 10 10 10s10-4.477 10-10v-.118c0-5.523-4.478-10-10-10z"/></symbol><symbol viewBox="0 0 496 496" id="bubble-speech" xmlns="http://www.w3.org/2000/svg"><path d="M398.855 145.113A128.547 128.547 0 00400 128C400 57.426 342.574 0 272 0c-51.273 0-97.258 30.633-117.383 77.168C139.168 68.528 121.855 64 104 64 46.656 64 0 110.656 0 168c0 45.09 28.473 84.176 70.406 98.375A71.571 71.571 0 0064 296c0 39.703 32.305 72 72 72 9.91 0 19.734-2.09 28.832-6.078C182.977 395.032 217.895 416 256 416c38.063 0 73.078-21.04 91.207-54.191C359.007 365.922 371.352 368 384 368c61.762 0 112-50.238 112-112 0-56.496-42-103.594-97.145-110.887zM384 352c-13.016 0-25.648-2.566-37.55-7.633-3.977-1.703-8.61.098-10.419 4.04C321.754 379.753 290.336 400 256 400c-34.617 0-66.137-20.465-80.305-52.137a7.963 7.963 0 00-4.863-4.351 7.997 7.997 0 00-2.434-.383 8.047 8.047 0 00-4.054 1.101c-8.64 5.083-18.442 7.77-28.344 7.77-30.879 0-56-25.129-56-56 0-10.719 3.09-21.176 8.93-30.246a8.016 8.016 0 00.687-7.34 8.002 8.002 0 00-5.601-4.781C43.969 244.313 16 209.105 16 168c0-48.52 39.48-88 88-88 17.953 0 35.258 5.414 50.023 15.648a7.986 7.986 0 007.047 1.024 8.018 8.018 0 005.075-5.008C181.68 46.406 224.223 16 272 16c61.762 0 112 50.238 112 112a113.4 113.4 0 01-2.297 22.672 7.983 7.983 0 001.504 6.496 8.052 8.052 0 005.914 3.105C440.078 162.953 480 205.008 480 256c0 52.938-43.063 96-96 96zm0 0"/><path d="M288 200h16v16h-16zm-32 0h16v16h-16zm-32 0h16v16h-16zm-32 0h16v16h-16zM24 448c-13.23 0-24 10.77-24 24s10.77 24 24 24 24-10.77 24-24-10.77-24-24-24zm0 32c-4.406 0-8-3.586-8-8s3.594-8 8-8 8 3.586 8 8-3.594 8-8 8zm64-104c-22.055 0-40 17.945-40 40s17.945 40 40 40 40-17.945 40-40-17.945-40-40-40zm0 64c-13.23 0-24-10.77-24-24s10.77-24 24-24 24 10.77 24 24-10.77 24-24 24zM272 32v16c44.113 0 80 35.887 80 80h16c0-52.938-43.063-96-96-96zm0 0"/></symbol><symbol viewBox="0 0 479.058 479.058" id="email" xmlns="http://www.w3.org/2000/svg"><path d="M434.146 59.882H44.912C20.146 59.882 0 80.028 0 104.794v269.47c0 24.766 20.146 44.912 44.912 44.912h389.234c24.766 0 44.912-20.146 44.912-44.912v-269.47c0-24.766-20.146-44.912-44.912-44.912zm0 29.941c2.034 0 3.969.422 5.738 1.159L239.529 264.631 39.173 90.982a14.902 14.902 0 015.738-1.159zm0 299.411H44.912c-8.26 0-14.971-6.71-14.971-14.971V122.615l199.778 173.141c2.822 2.441 6.316 3.655 9.81 3.655s6.988-1.213 9.81-3.655l199.778-173.141v251.649c-.001 8.26-6.711 14.97-14.971 14.97z"/></symbol><symbol viewBox="0 0 512 512" id="facebook" xmlns="http://www.w3.org/2000/svg"><path d="M325.581 111.282h46.654c9.995 0 18.128-8.132 18.128-18.128V18.187c0-9.996-8.132-18.128-18.128-18.128H308.17A75.982 75.982 0 00304.994 0c-12.088 0-54.123 2.385-87.472 33.064-36.401 33.493-32.918 73.557-31.386 83.435v48.84h-46.371c-9.995 0-18.128 8.132-18.128 18.128v80.629c0 9.997 8.132 18.13 18.128 18.13h43.688v211.647c0 9.995 8.132 18.128 18.128 18.128h91.368c9.995 0 18.128-8.133 18.128-18.128V283.271h51.749c9.214 0 16.956-6.903 18.009-16.056l9.409-81.672a18.147 18.147 0 00-4.477-14.14 18.149 18.149 0 00-13.53-6.063h-61.156v-40.997c-.002-8.471 2.309-13.061 14.5-13.061zm-24.7 74.457h68.807l-8.886 77.134h-59.924c-5.632 0-10.199 4.566-10.199 10.199v218.53H203.85V272.026c0-5.633-4.567-10.199-10.199-10.199h-51.617v-76.09h54.301c5.632 0 10.199-4.566 10.199-10.199V115.67c0-.585-.05-1.17-.15-1.747-1.075-6.175-4.918-38.365 24.95-65.847 27.915-25.681 63.439-27.677 73.661-27.677 1.433 0 2.286.038 2.442.046.168.008.336.012.504.012h62.026v70.428h-44.385c-21.854 0-34.901 12.508-34.901 33.458v51.196c0 5.634 4.568 10.2 10.2 10.2z"/><path d="M224.382 343.713c-5.632 0-10.199 4.566-10.199 10.199v5.1c0 5.633 4.567 10.199 10.199 10.199s10.199-4.566 10.199-10.199v-5.1c0-5.633-4.568-10.199-10.199-10.199zm0 37.737c-5.632 0-10.199 4.566-10.199 10.199v77.514c0 5.633 4.567 10.199 10.199 10.199s10.199-4.566 10.199-10.199v-77.514c0-5.633-4.568-10.199-10.199-10.199z"/></symbol><symbol viewBox="0 0 512.074 512.074" id="good-luck" xmlns="http://www.w3.org/2000/svg"><g class="flayer"><path d="M371.003 412.037c-16.542 0-30 13.458-30 30s13.458 30 30 30 30-13.458 30-30-13.458-30-30-30zm0 40c-5.514 0-10-4.486-10-10s4.486-10 10-10 10 4.486 10 10-4.485 10-10 10zm141.071-246.299c0-27.483-10.183-53.186-28.809-73.057 8.729-30.15.448-63.087-21.949-85.483-15.475-15.474-36.032-24.466-57.887-25.318-18.732-.735-36.984 4.553-52.264 14.998C323.836 13.057 289.188.038 252.67.038c-39.294 0-77.232 15.603-105.189 43.04-23.514-9.309-49.391-10.067-73.628-2.032-5.242 1.738-8.082 7.397-6.344 12.639s7.397 8.083 12.639 6.344c21.629-7.171 44.855-5.75 65.4 4.005a10 10 0 0011.628-2.241c24.562-26.537 59.369-41.756 95.495-41.756 34.161 0 66.438 13.148 90.885 37.022a10 10 0 0013.445.48c26.238-22.195 65.847-20.525 90.172 3.8 18.417 18.417 24.425 46.104 15.306 70.536a10.002 10.002 0 002.482 10.749c17.483 16.603 27.111 39.017 27.111 63.114a86.892 86.892 0 01-21.971 57.796 10 10 0 00-1.762 10.479c3.737 9 5.632 18.534 5.632 28.336 0 40.785-33.181 73.966-73.966 73.966-16.564 0-32.233-5.37-45.312-15.528a10 10 0 00-11.739-.384c-15.383 10.41-33.375 15.913-52.032 15.913-18.611 0-36.568-5.478-51.928-15.842a10.003 10.003 0 00-11.929.552c-12.041 9.86-27.256 15.29-42.841 15.29-17.098 0-33.425-6.403-45.975-18.031a10.003 10.003 0 00-10.397-1.994 67.964 67.964 0 01-24.564 4.572c-37.645 0-68.271-30.626-68.271-68.27 0-22.474 11.079-43.513 29.635-56.281a9.998 9.998 0 00-.664-16.896 88.084 88.084 0 01-18.199-13.968c-23.643-23.643-31.784-58.059-21.247-89.818 1.739-5.242-1.1-10.901-6.342-12.64-5.241-1.737-10.901 1.101-12.64 6.342-12.932 38.983-2.936 81.232 26.09 110.258a107.95 107.95 0 0010.576 9.278C24.99 245.39 15.02 268.344 15.02 292.593c0 48.672 39.598 88.27 88.271 88.27a87.843 87.843 0 0025.992-3.911c15.549 12.528 34.835 19.363 54.944 19.363 17.747 0 35.126-5.437 49.671-15.43 17.26 10.116 36.828 15.43 57.027 15.43 20.3 0 39.958-5.366 57.279-15.579 15.374 10.215 33.142 15.579 51.805 15.579 51.813 0 93.966-42.153 93.966-93.966 0-10.373-1.672-20.512-4.979-30.226a106.874 106.874 0 0023.078-66.385zm-91.05 271.299c-2.63 0-5.21 1.07-7.07 2.93s-2.93 4.44-2.93 7.07 1.07 5.21 2.93 7.07 4.44 2.93 7.07 2.93 5.21-1.07 7.07-2.93 2.93-4.44 2.93-7.07-1.07-5.21-2.93-7.07-4.44-2.93-7.07-2.93z"/><path d="M38.724 84.197c2.63 0 5.21-1.06 7.07-2.93 1.86-1.86 2.93-4.44 2.93-7.07s-1.07-5.21-2.93-7.07-4.44-2.93-7.07-2.93c-2.64 0-5.21 1.07-7.07 2.93-1.87 1.86-2.93 4.44-2.93 7.07s1.06 5.21 2.93 7.07c1.86 1.87 4.44 2.93 7.07 2.93z"/></g></symbol><symbol viewBox="0 0 512 512" id="instagram" xmlns="http://www.w3.org/2000/svg"><path d="M362 0H150C67.29 0 0 67.29 0 150v212c0 82.71 67.29 150 150 150h212c82.71 0 150-67.29 150-150V150C512 67.29 444.71 0 362 0zm130 362c0 71.682-58.318 130-130 130H150c-71.682 0-130-58.318-130-130V150C20 78.318 78.318 20 150 20h212c71.682 0 130 58.318 130 130v212z"/><path d="M362 44H150C91.551 44 44 91.551 44 150v212c0 58.449 47.551 106 106 106h61c5.523 0 10-4.477 10-10s-4.477-10-10-10h-61c-47.42 0-86-38.58-86-86V150c0-47.42 38.58-86 86-86h212c47.42 0 86 38.58 86 86v212c0 47.42-38.58 86-86 86h-60.333c-5.523 0-10 4.477-10 10s4.477 10 10 10H362c58.449 0 106-47.551 106-106V150c0-58.449-47.551-106-106-106z"/><path d="M263.07 450.93c-1.86-1.86-4.44-2.93-7.07-2.93s-5.21 1.07-7.07 2.93S246 455.37 246 458s1.07 5.21 2.93 7.07S253.37 468 256 468s5.21-1.07 7.07-2.93c1.86-1.86 2.93-4.44 2.93-7.07s-1.07-5.21-2.93-7.07zm-87.24-295.22c-3.777-4.03-10.104-4.236-14.135-.461l-.443.417c-4.017 3.79-4.201 10.119-.41 14.136a9.97 9.97 0 007.275 3.137 9.966 9.966 0 006.861-2.727l.391-.367c4.03-3.776 4.237-10.105.461-14.135z"/><path d="M256 118c-21.964 0-43.824 5.291-63.217 15.301-4.907 2.533-6.832 8.565-4.299 13.473 2.534 4.907 8.566 6.831 13.473 4.299C218.762 142.398 236.945 138 256 138c65.065 0 118 52.935 118 118s-52.935 118-118 118-118-52.935-118-118c0-20.419 5.295-40.537 15.313-58.178 2.727-4.802 1.045-10.906-3.758-13.634-4.803-2.726-10.906-1.045-13.634 3.758C124.197 208.592 118 232.125 118 256c0 76.093 61.907 138 138 138s138-61.907 138-138-61.907-138-138-138z"/><path d="M256 166c-49.626 0-90 40.374-90 90s40.374 90 90 90 90-40.374 90-90-40.374-90-90-90zm0 160c-38.598 0-70-31.402-70-70s31.402-70 70-70 70 31.402 70 70-31.402 70-70 70zM387.25 86.75c-20.953 0-38 17.047-38 38s17.047 38 38 38 38-17.047 38-38-17.047-38-38-38zm0 56c-9.925 0-18-8.075-18-18s8.075-18 18-18 18 8.075 18 18-8.075 18-18 18z"/></symbol><symbol viewBox="0 0 512.009 512.009" id="phone" xmlns="http://www.w3.org/2000/svg"><path d="M394.792 220.234a53.25 53.25 0 00-47.063-28.229H164.271a53.252 53.252 0 00-47.063 28.229l-68.271 128.01a53.585 53.585 0 00-6.271 25.094v74.667c0 23.531 19.146 42.667 42.667 42.667h341.333c23.521 0 42.667-19.135 42.667-42.667v-74.667a53.66 53.66 0 00-6.271-25.104l-68.27-128zM448 448.004c0 11.76-9.563 21.333-21.333 21.333H85.333c-11.771 0-21.333-9.573-21.333-21.333v-74.667a32.258 32.258 0 013.771-15.063l68.271-128a31.932 31.932 0 0128.229-16.938h183.458a31.931 31.931 0 0128.229 16.938l68.271 127.99c2.458 4.635 3.771 9.854 3.771 15.073v74.667z"/><circle cx="191.983" cy="277.338" r="21.333"/><circle cx="191.983" cy="341.338" r="21.333"/><circle cx="191.983" cy="405.338" r="21.333"/><circle cx="256.004" cy="405.338" r="21.333"/><circle cx="319.983" cy="405.338" r="21.333"/><circle cx="256.004" cy="341.338" r="21.333"/><circle cx="319.983" cy="341.338" r="21.333"/><circle cx="256.004" cy="277.338" r="21.333"/><circle cx="319.983" cy="277.338" r="21.333"/><path d="M503.25 129.025C437.229 59.588 349.417 21.338 255.99 21.338c-93.417 0-181.229 38.25-247.24 107.688C2.938 135.14 0 143.168 0 151.196c0 8.027 2.937 16.053 8.75 22.163l49.167 51.74c11.563 12.146 32.083 12.146 43.646 0 16.448-17.302 35.146-31.563 55.479-42.333 10.188-5.25 16.771-16.302 16.677-26.75l7.438-56.063c53.583-17.146 96.615-17.135 149.698-.01l7.333 54.667c0 11.823 6.271 22.615 16.521 28.25 20.438 10.823 39.135 25.083 55.594 42.375 5.781 6.094 13.531 9.438 21.823 9.438 8.281 0 16.031-3.344 21.813-9.427l49.313-51.875c5.625-5.917 8.569-13.628 8.75-21.396.191-8.287-2.752-16.638-8.752-22.95zm-15.458 29.636l-49.313 51.885c-3.448 3.615-9.292 3.604-12.719-.01-18.052-18.969-38.594-34.625-60.927-46.448-3.323-1.833-5.313-5.375-5.406-10.885l-8.313-62.688a10.675 10.675 0 00-7.115-8.688c-31.115-10.656-59.406-15.979-87.781-15.979-28.365 0-56.802 5.323-88.187 15.969a10.66 10.66 0 00-7.146 8.698l-8.406 64.094c0 3.896-2.094 7.594-5.313 9.25-22.479 11.906-43.021 27.563-61.063 46.531-3.438 3.604-9.292 3.594-12.729.01l-49.167-51.74c-3.854-4.042-3.854-10.885 0-14.927C86.156 78.557 168.469 42.671 255.99 42.671s169.844 35.885 231.802 101.063c3.854 4.041 3.854 10.885 0 14.927z"/></symbol><symbol viewBox="0 0 344.57 344.57" id="speech-bubble" xmlns="http://www.w3.org/2000/svg"><path d="M335.206 144.552a7.5 7.5 0 00-7.5 7.5c0 19.183-15.606 34.789-34.79 34.789-3.645 0-7.276-.582-10.793-1.73a7.499 7.499 0 00-9.824 6.925c-.52 18.968-15.776 33.826-34.733 33.826-10.105 0-19.706-4.415-26.341-12.114a7.501 7.501 0 00-11.362 0c-6.635 7.699-16.236 12.114-26.341 12.114-10.725 0-20.696-4.868-27.358-13.356a7.499 7.499 0 00-11.8 0c-6.662 8.488-16.634 13.356-27.358 13.356-6.999 0-13.741-2.069-19.499-5.985a7.498 7.498 0 00-10.419 1.983 7.499 7.499 0 001.984 10.419c8.255 5.615 17.915 8.583 27.934 8.583 12.451 0 24.187-4.572 33.258-12.768 9.071 8.195 20.807 12.768 33.258 12.768a49.689 49.689 0 0032.022-11.703 49.689 49.689 0 0032.022 11.703c13.057 0 25.391-5.021 34.731-14.14 7.141-6.973 11.938-15.753 13.948-25.334 2.211.302 4.439.453 6.672.453 27.454 0 49.79-22.335 49.79-49.789a7.501 7.501 0 00-7.501-7.5zM67.102 199.37a7.5 7.5 0 00-4.655-14.26 34.735 34.735 0 01-10.793 1.73c-19.183 0-34.79-15.606-34.79-34.789 0-9.908 4.283-19.388 11.752-26.009a7.503 7.503 0 000-11.223c-7.468-6.623-11.752-16.103-11.752-26.01 0-19.184 15.606-34.79 34.79-34.79 3.643 0 7.274.582 10.794 1.73a7.5 7.5 0 009.823-6.925C72.792 29.858 88.048 15 107.005 15c10.725 0 20.697 4.868 27.358 13.355a7.496 7.496 0 0011.8 0C152.824 19.868 162.795 15 173.521 15c4.142 0 7.5-3.357 7.5-7.5s-3.358-7.5-7.5-7.5c-12.452 0-24.187 4.572-33.258 12.767C131.191 4.572 119.457 0 107.005 0c-13.057 0-25.391 5.021-34.73 14.14-7.141 6.972-11.938 15.753-13.948 25.333a49.288 49.288 0 00-6.672-.453c-27.454 0-49.79 22.336-49.79 49.79 0 11.587 4.08 22.758 11.387 31.621-7.307 8.862-11.387 20.033-11.387 31.621 0 27.454 22.335 49.789 49.79 49.789 5.227 0 10.425-.831 15.447-2.471zM200.647 27.899a7.501 7.501 0 0010.578-.785C217.859 19.415 227.46 15 237.565 15c18.958 0 34.214 14.857 34.733 33.825a7.498 7.498 0 009.823 6.925 34.769 34.769 0 0110.794-1.73c19.183 0 34.79 15.606 34.79 34.79 0 9.907-4.284 19.387-11.752 26.01a7.499 7.499 0 004.979 13.111 7.468 7.468 0 004.973-1.889c10.677-9.467 16.801-23.037 16.801-37.232 0-27.454-22.335-49.79-49.79-49.79-2.233 0-4.46.151-6.672.453-2.01-9.58-6.807-18.361-13.948-25.333C262.957 5.021 250.622 0 237.565 0c-14.475 0-28.217 6.313-37.704 17.321a7.502 7.502 0 00.786 10.578zm-71.328 224c-20.541 0-36.63 10.801-36.63 24.59s16.09 24.59 36.63 24.59c20.54 0 36.63-10.801 36.63-24.59s-16.09-24.59-36.63-24.59zm0 34.18c-13.003 0-21.63-5.772-21.63-9.59s8.627-9.59 21.63-9.59c13.003 0 21.63 5.772 21.63 9.59s-8.627 9.59-21.63 9.59zm-33.791 26.739a7.5 7.5 0 00-7.5 7.5c0 4.367-7.423 9.252-17.358 9.252s-17.358-4.885-17.358-9.252c0-4.368 7.423-9.253 17.358-9.253 4.142 0 7.5-3.357 7.5-7.5s-3.358-7.5-7.5-7.5c-18.145 0-32.358 10.653-32.358 24.253S52.526 344.57 70.67 344.57s32.358-10.652 32.358-24.252a7.5 7.5 0 00-7.5-7.5z"/></symbol><symbol viewBox="0 0 46.127 46.127" id="thought-bubble" xmlns="http://www.w3.org/2000/svg"><path d="M43.202 16.593c1.356-1.627 2.112-3.619 2.112-5.666 0-5.233-4.773-9.491-10.643-9.491-2.492 0-4.847.758-6.744 2.153a11.524 11.524 0 00-5.445-1.34c-5.868 0-10.643 4.257-10.643 9.491 0 .328.021.659.062.991-3.928 1.449-6.563 4.884-6.563 8.761 0 5.125 4.578 9.313 10.279 9.485 2.042 2.785 5.523 4.482 9.302 4.482 3.094 0 5.99-1.125 8.088-3.116.815.175 1.645.264 2.477.264 5.867 0 10.643-4.257 10.643-9.49 0-2.435-1.068-4.775-2.925-6.524zm-7.718 13.014a8.83 8.83 0 01-2.52-.37 1.5 1.5 0 00-1.555.445c-1.557 1.766-3.926 2.909-6.49 2.777-8.005-.408-7.938-6.043-7.939-7.258-.001-.972.136-1.578.136-1.578.166-.711-.909-.959-1.072-.25.135-.448-.681 1.967-.191 4.604-4.153-.059-7.514-2.943-7.514-6.485 0-2.919 2.322-5.492 5.647-6.257a1.5 1.5 0 001.1-1.893 5.591 5.591 0 01-.246-1.601c0-3.579 3.429-6.491 7.643-6.491 1.731 0 3.37.488 4.739 1.412.573.389 1.34.333 1.853-.137 1.469-1.346 3.457-2.088 5.599-2.088 4.215 0 7.643 2.912 7.643 6.491 0 1.754-.823 3.402-2.318 4.642 0 0-2.471-.394-3.799-.253-.93.098-.82 1.056-.211 1.133.002 0 .574.073 1.441.322.784.232 1.785.625 2.672 1.181.012.008.02.019.03.026 1.904 1.247 2.996 3.12 2.996 5.138-.001 3.578-3.43 6.49-7.644 6.49zM9.92 31.519a4.258 4.258 0 00-4.254 4.253 4.258 4.258 0 004.254 4.253 4.257 4.257 0 004.253-4.253 4.258 4.258 0 00-4.253-4.253zm0 6.507a2.256 2.256 0 01-2.254-2.253 2.258 2.258 0 012.254-2.254c1.242 0 2.253 1.011 2.253 2.253s-1.011 2.254-2.253 2.254zm-7 .827c-1.61 0-2.92 1.31-2.92 2.919s1.31 2.919 2.92 2.919c1.609 0 2.919-1.31 2.919-2.919s-1.31-2.919-2.919-2.919zm0 3.839c-.507 0-.92-.413-.92-.919s.413-.919.92-.919c.507 0 .919.413.919.919s-.412.919-.919.919z"/><path d="M23.689 6.777c-2.012-.182-6.038.571-6.846 4.722a1 1 0 101.962.382c.661-3.397 4.524-3.125 4.705-3.112a.995.995 0 001.083-.906.997.997 0 00-.904-1.086z"/></symbol><symbol viewBox="0 0 511.998 511.998" id="vk" xmlns="http://www.w3.org/2000/svg"><path d="M489.25 335.681c-11.137-13.347-23.719-25.264-35.888-36.789-4.276-4.051-8.7-8.24-12.96-12.399l-.003-.003c-5.73-5.589-8.535-9.556-8.828-12.486-.288-2.88 1.68-7.153 6.207-13.469 6.769-9.5 13.984-19.016 20.964-28.218 6.204-8.18 12.618-16.639 18.766-25.146l1.38-1.91c11.995-16.602 24.397-33.769 31.043-54.689 1.898-5.998 3.869-14.874-.885-22.666-4.756-7.794-13.573-10.104-19.787-11.162-3.035-.52-5.915-.563-8.595-.563l-77.806-.069c-13.452-.224-22.784 6.152-27.87 18.956-4.07 10.226-8.877 22.077-14.446 33.319-10.655 21.703-24.194 46.7-43.818 67.527l-.872.928c-1.336 1.426-3.519 3.758-4.64 4.293-2.126-1.336-4.579-8.977-4.467-12.98.003-.099.004-.197.004-.295l-.069-89.903c0-.457-.032-.914-.093-1.367-1.745-12.826-5.147-25.684-25.447-29.69a10.164 10.164 0 00-1.975-.193H198.23c-15.227 0-23.281 6.973-29.738 14.533-1.869 2.204-6.835 8.056-4.305 15.21 2.56 7.239 10.188 8.684 12.692 9.158 8.82 1.674 13.381 6.659 14.793 16.189 2.791 18.517 3.133 38.326 1.078 62.309-.573 6.439-1.639 11.333-3.359 15.403-.476 1.127-.894 1.825-1.186 2.236-.466-.188-1.191-.548-2.195-1.235-6.198-4.241-10.869-10.834-15.386-17.208-18.042-25.473-33.218-53.607-46.401-86.022-5.429-13.283-15.635-20.702-28.719-20.894-24.928-.415-47.983-.405-70.459.032-10.601.184-18.035 3.521-22.099 9.92-4.069 6.411-3.92 14.585.444 24.299 31.196 69.37 59.522 119.834 91.842 163.628 22.757 30.832 45.665 52.234 72.092 67.354 27.766 15.885 59.08 23.67 95.408 23.669 4.131 0 8.334-.101 12.593-.304 22.413-1.021 31.532-9.936 32.527-31.765.558-11.537 1.842-20.883 6.297-29.003 1.246-2.273 2.652-3.797 3.76-4.076 1.178-.294 3.267.427 5.59 1.936 4.247 2.758 7.904 6.498 10.911 9.781 3.048 3.337 6.128 6.784 9.109 10.117 6.343 7.097 12.902 14.436 19.774 21.436 15.543 15.844 33.461 23.11 53.278 21.588l71.205.033h.004c.226 0 .452-.007.678-.022 8.213-.547 15.314-5.094 19.484-12.478 5.021-8.892 4.945-20.155-.207-30.14-5.376-10.381-12.351-19.316-18.485-26.71zm.931 46.821c-.982 1.739-2.193 2.056-2.818 2.132l-71.19-.033h-.007a9.82 9.82 0 00-.841.035c-14.025 1.168-25.946-3.762-37.474-15.512-6.539-6.662-12.937-13.819-19.124-20.741-3.015-3.373-6.132-6.862-9.264-10.29-3.884-4.242-8.685-9.117-14.854-13.123-9.236-5.995-16.89-5.814-21.683-4.606-4.743 1.195-11.485 4.605-16.66 14.049-6.704 12.219-8.183 25.401-8.785 37.854-.348 7.616-1.636 9.628-2.174 10.139-.705.67-3.061 1.848-10.922 2.207-37.776 1.776-69.478-4.989-96.931-20.696-23.882-13.664-44.794-33.291-65.809-61.762-31.425-42.579-59.075-91.887-89.65-159.877-1.108-2.463-1.45-4-1.549-4.823.78-.256 2.304-.593 4.976-.642 22.248-.431 45.062-.443 69.765-.031 3.382.05 7.233 1.065 10.149 8.2 13.774 33.869 29.685 63.344 48.645 90.112 5.034 7.105 11.3 15.949 20.509 22.25 8.435 5.776 15.28 5.5 19.538 4.252 4.26-1.249 10.172-4.719 14.154-14.147 2.569-6.077 4.122-12.92 4.891-21.566 2.197-25.653 1.807-46.981-1.225-67.098-2.137-14.413-9.579-24.825-21.302-30.142 2.082-1.084 4.428-1.536 7.686-1.536h79.877c4.494 1.008 5.384 2.192 5.689 2.597 1.294 1.721 2.034 5.792 2.486 8.973l.068 89.074c-.18 8.539 3.97 27.477 18.1 32.67.116.043.233.083.35.121 12.864 4.204 21.373-4.877 25.941-9.756l.814-.866c21.496-22.815 35.971-49.473 47.28-72.508 5.894-11.895 10.886-24.199 15.107-34.805 2.112-5.319 4.034-6.195 8.62-6.098.063.002.125.002.189.002l77.905.069c1.812 0 3.703.021 5.17.272 3.712.632 5.241 1.402 5.745 1.721.052.591.04 2.291-1.082 5.839-5.651 17.789-16.572 32.903-28.133 48.905l-1.381 1.913c-6.007 8.312-12.35 16.675-18.483 24.764-7.07 9.321-14.378 18.958-21.307 28.684-14.814 20.669-13.512 34.385 4.975 52.417 4.369 4.265 8.847 8.507 13.179 12.609 12.281 11.633 23.882 22.62 34.235 35.026 5.42 6.534 11.564 14.381 16.042 23.029 2.336 4.527 1.763 8.617.563 10.743z"/><path d="M74.382 169.635a1088.422 1088.422 0 01-4.454-8.914c-2.496-5.049-8.608-7.123-13.661-4.627-5.05 2.495-7.122 8.611-4.627 13.661 1.499 3.034 3.012 6.062 4.537 9.081a10.199 10.199 0 0013.702 4.502c5.029-2.542 7.044-8.676 4.503-13.703zm63.971 105.806c-16.724-22.659-32.37-47.27-47.83-75.239-2.725-4.93-8.931-6.716-13.86-3.992-4.929 2.725-6.717 8.931-3.992 13.86 15.896 28.756 32.013 54.102 49.271 77.485 2 2.71 5.087 4.143 8.214 4.143a10.14 10.14 0 006.048-1.995c4.531-3.344 5.493-9.729 2.149-14.262z"/></symbol></svg>